<svg width="24" height="24" viewBox="0 0 24 24" fill="none" xmlns="http://www.w3.org/2000/svg">
<path fill-rule="evenodd" clip-rule="evenodd" d="M3 6C3 5.0335 3.7835 4.25 4.75 4.25H19.2539C20.2204 4.25 21.0039 5.0335 21.0039 6V15.4961C21.0039 15.9103 20.6681 16.2461 20.2539 16.2461C19.8397 16.2461 19.5039 15.9103 19.5039 15.4961V6C19.5039 5.86193 19.392 5.75 19.2539 5.75H4.75C4.61193 5.75 4.5 5.86193 4.5 6V17.4961C4.5 17.6342 4.61193 17.7461 4.75 17.7461H17.2539C17.6681 17.7461 18.0039 18.0819 18.0039 18.4961C18.0039 18.9103 17.6681 19.2461 17.2539 19.2461H4.75C3.7835 19.2461 3 18.4626 3 17.4961V6ZM8.00391 8.49609C8.00391 8.08188 8.33969 7.74609 8.75391 7.74609H13.2539C13.6681 7.74609 14.0039 8.08188 14.0039 8.49609C14.0039 8.91031 13.6681 9.24609 13.2539 9.24609H8.75391C8.33969 9.24609 8.00391 8.91031 8.00391 8.49609ZM8.00391 11.7383C8.00391 11.3241 8.33969 10.9883 8.75391 10.9883H15.2617C15.6759 10.9883 16.0117 11.3241 16.0117 11.7383C16.0117 12.1525 15.6759 12.4883 15.2617 12.4883H8.75391C8.33969 12.4883 8.00391 12.1525 8.00391 11.7383ZM8.00391 14.9961C8.00391 14.5819 8.33969 14.2461 8.75391 14.2461H13.2617C13.6759 14.2461 14.0117 14.5819 14.0117 14.9961C14.0117 15.4103 13.6759 15.7461 13.2617 15.7461H8.75391C8.33969 15.7461 8.00391 15.4103 8.00391 14.9961Z" fill="black"/>
</svg>
