<svg width="106" height="36" viewBox="0 0 106 36" fill="none" xmlns="http://www.w3.org/2000/svg">
<path fill-rule="evenodd" clip-rule="evenodd" d="M106 0.315796L16.7927 0.333236C12.1104 0.502826 8.83734 3.83569 7.73092 8.53849C6.26381 13.7368 0 35.6843 0 35.6843H89.4287C92.9353 35.6843 96.566 33.4111 97.2691 30.9412L106 0.315796Z" fill="#F39A05"/>
<path fill-rule="evenodd" clip-rule="evenodd" d="M78.254 25.2056C76.8158 25.2056 75.5549 25.028 74.5022 24.6777C73.4568 24.3305 72.6109 23.8386 71.9848 23.219C71.3746 22.614 70.9738 21.8794 70.7927 21.0372C70.6171 20.2127 70.6699 19.2903 70.9504 18.2949C71.2138 17.3572 71.6693 16.4792 72.304 15.685C72.9467 14.8799 73.7398 14.1734 74.6605 13.5866C75.6126 12.9797 76.7053 12.4957 77.9072 12.1491C79.1343 11.7946 80.459 11.6146 81.8475 11.6146C83.1102 11.6146 84.252 11.7739 85.2415 12.0889C86.2267 12.4039 87.048 12.8411 87.6797 13.389C89.2205 14.7571 89.6815 16.436 89.0934 18.5259L89.0928 18.5265C88.8153 19.5073 88.3611 20.4091 87.7411 21.2063C87.118 22.0071 86.3495 22.7046 85.4539 23.2786C84.5276 23.8745 83.4509 24.3464 82.2563 24.685C81.0299 25.0298 79.6837 25.2056 78.254 25.2056ZM83.4585 6.73962C81.5457 6.73962 79.6569 6.99866 77.843 7.50883C76.0125 8.02447 74.3054 8.75233 72.7707 9.67355C68.9686 11.9635 66.5273 14.9431 65.5175 18.5264C64.5083 22.1061 65.2241 25.0352 67.6463 27.2291C68.623 28.1096 69.8979 28.8137 71.4319 29.3208C72.9635 29.8261 74.716 30.0827 76.6405 30.0827C78.5729 30.0827 80.4678 29.8292 82.2768 29.3281C84.1067 28.8216 85.8009 28.1071 87.3098 27.206C91.0647 24.9525 93.4919 21.9547 94.5231 18.2953C95.5157 14.7734 94.7889 11.8565 92.3636 9.62673L92.3618 9.62491C91.3894 8.72497 90.1225 8.00988 88.5964 7.50214C87.0735 6.99562 85.3455 6.73962 83.4585 6.73962Z" fill="#20264A"/>
<path fill-rule="evenodd" clip-rule="evenodd" d="M60.1555 15.1807C59.8926 16.108 59.4308 16.4969 59.0599 16.7309C58.4268 17.1306 57.4964 17.3423 56.372 17.3423H44.1538L45.5153 12.556H57.1599C58.662 12.556 59.5709 12.8322 60.0191 13.4261C60.481 14.0363 60.2777 14.7526 60.1561 15.1807H60.1555ZM55.9908 30.0807H62.4751L58.7868 21.6942L59.4138 21.4741C59.5514 21.4259 59.6858 21.3758 59.8197 21.3234C60.72 20.9712 61.5632 20.4937 62.3259 19.9052C63.1095 19.3023 63.7948 18.5733 64.3647 17.7376C64.9248 16.9194 65.3577 15.98 65.6506 14.9471C66.2911 12.6927 66.0694 10.8892 64.9905 9.58806C63.9354 8.31582 62.1429 7.67126 59.6619 7.67126H41.5674L35.1948 30.0807H40.532L42.7661 22.229H52.3535L55.9908 30.0807Z" fill="#20264A"/>
<path fill-rule="evenodd" clip-rule="evenodd" d="M29.3019 17.3418H17.124L18.4855 12.556H30.1817C31.6113 12.556 32.5175 12.8352 32.9525 13.411C33.417 14.0249 33.2099 14.7484 33.087 15.1808C32.8223 16.1099 32.367 16.4989 32.0008 16.734L32.0002 16.7346C31.3674 17.1374 30.4606 17.3418 29.3019 17.3418ZM8.11694 30.0807H13.4681L15.7222 22.2294H27.6089C30.4141 22.2294 32.7794 21.6089 34.6409 20.3855C36.5964 19.1018 37.9283 17.2525 38.6017 14.89C38.9107 13.8041 39.0016 12.7959 38.8739 11.8951C38.7473 11.0015 38.4223 10.2303 37.9068 9.60318C37.3975 8.98333 36.6867 8.50035 35.794 8.16751C34.9137 7.83768 33.8668 7.67126 32.6829 7.67126H14.5469L8.11694 30.0807Z" fill="#20264A"/>
</svg>
