<svg width="22" height="21" viewBox="0 0 22 21" fill="none" xmlns="http://www.w3.org/2000/svg">
<path fill-rule="evenodd" clip-rule="evenodd" d="M7.74264 0.68457C9.62809 0.68457 11.2101 2.27567 11.3102 4.17142L11.3152 4.36196L11.3148 4.57457L14.7935 4.57501L14.7928 8.92257L21.75 8.92283V20.8576H10.25V8.92283L13.2928 8.92257L13.293 6.07487H2.18403V19.3569L6.52177 19.3576V20.8576H0.684814V4.57501L4.16281 4.57457L4.16308 4.36196C4.16308 2.38433 5.79368 0.68457 7.74264 0.68457ZM20.25 10.4219H11.75V19.3569H20.25V10.4219ZM14.3587 11.8467V14.4607C14.3587 15.3616 15.1293 16.1541 16.0026 16.1541C16.8289 16.1541 17.5604 15.4444 17.6351 14.6022L17.6413 14.4607V11.8467H19.1413V14.4607C19.1413 16.1814 17.7138 17.6541 16.0026 17.6541C14.3503 17.6541 12.9579 16.2807 12.8638 14.6377L12.8587 14.4607V11.8467H14.3587ZM7.74264 2.18457C6.68446 2.18457 5.74796 3.11284 5.66853 4.2112L5.66308 4.36196L5.66281 4.57457H9.81481L9.81525 4.36196C9.81525 3.19724 8.84706 2.18457 7.74264 2.18457Z" fill="black"/>
</svg>
