<svg width="24" height="24" viewBox="0 0 24 24" fill="none" xmlns="http://www.w3.org/2000/svg">
<g clip-path="url(#clip0_502_24400)">
<mask id="mask0_502_24400" style="mask-type:alpha" maskUnits="userSpaceOnUse" x="0" y="0" width="24" height="24">
<path d="M24 0H0V24H24V0Z" fill="white"/>
</mask>
<g mask="url(#mask0_502_24400)">
<path d="M15.5952 3.2559C14.0843 3.18596 12.6097 3.73975 11.5233 4.82612L11.3502 5.00739C10.1758 6.29615 9.72066 8.05313 10.0643 9.72678L10.124 9.98803L3.0541 17.0578C1.98196 18.1299 1.98196 19.874 3.05411 20.946L3.19149 21.0744C4.26981 22.0162 5.90806 21.9734 6.93548 20.946L14.013 13.868L14.0249 13.8717C15.8519 14.3355 17.8071 13.8382 19.168 12.4774C20.6238 11.0217 21.1113 8.88247 20.48 6.95908C20.3659 6.6299 20.0999 6.392 19.7724 6.31787L19.6492 6.29817C19.361 6.27094 19.073 6.37372 18.8665 6.58269L16.784 8.65803L15.662 8.33903L15.341 7.20503L17.4207 5.13221C17.662 4.8885 17.7579 4.54187 17.6774 4.21351C17.5968 3.88516 17.3514 3.62228 17.0294 3.51938C16.5668 3.36753 16.0838 3.27852 15.5952 3.2559ZM15.5458 4.75495L15.665 4.76403L13.6585 6.76506L14.4467 9.55304L17.22 10.3425L19.238 8.32903L19.2508 8.55057C19.2775 9.59812 18.8822 10.6419 18.1074 11.4167C17.043 12.481 15.4689 12.8122 14.0485 12.3136L13.6034 12.1573L5.87485 19.8853C5.38854 20.3716 4.60104 20.3716 4.11473 19.8853C3.62843 19.3991 3.62843 18.6048 4.11472 18.1185L11.8369 10.3968L11.6797 9.95118C11.18 8.53423 11.5152 6.95546 12.5839 5.88682C13.312 5.15883 14.2805 4.76261 15.2918 4.7503L15.5458 4.75495Z" fill="black"/>
</g>
</g>
<defs>
<clipPath id="clip0_502_24400">
<rect width="24" height="24" fill="white"/>
</clipPath>
</defs>
</svg>
