<svg width="82" height="56" viewBox="0 0 82 56" fill="none" xmlns="http://www.w3.org/2000/svg">
<g id="adidas_logo" clip-path="url(#clip0_223_3640)">
<g id="Group 3">
<mask id="mask0_223_3640" style="mask-type:luminance" maskUnits="userSpaceOnUse" x="69" y="41" width="13" height="15">
<path id="Clip 2" fill-rule="evenodd" clip-rule="evenodd" d="M69.0865 41.2332H81.7009V55.5001H69.0865V41.2332Z" fill="white"/>
</mask>
<g mask="url(#mask0_223_3640)">
<path id="Fill 1" fill-rule="evenodd" clip-rule="evenodd" d="M71.3545 48.9812C72.2746 49.4413 73.5235 49.7113 74.9995 49.9389C76.4787 50.169 77.8658 50.2596 77.9606 51.351C77.9606 52.0351 77.2198 52.9433 75.6454 52.9433C73.29 52.9029 72.7383 51.6244 72.7383 50.7633H69.0865C69.2284 53.544 71.5345 55.5001 75.4194 55.5001C78.8843 55.5001 81.7009 54.1784 81.7009 50.7633C81.7009 48.8877 80.3133 47.5688 78.1432 47.0177C75.8768 46.43 72.9688 46.5234 72.9688 45.1054C73.0602 44.1534 73.981 43.8765 75.368 43.8765C77.4501 43.8765 77.5884 45.0181 77.6323 45.7464H81.1456C80.9152 43.0556 78.6948 41.2332 75.188 41.2332C71.5817 41.2332 69.4085 43.1924 69.4085 45.6558C69.4085 47.1112 70.193 48.3897 71.3545 48.9812" fill="#333333"/>
</g>
</g>
<g id="Group 6">
<mask id="mask1_223_3640" style="mask-type:luminance" maskUnits="userSpaceOnUse" x="8" y="25" width="23" height="31">
<path id="Clip 5" fill-rule="evenodd" clip-rule="evenodd" d="M8.9098 25.5188H30.8298V55.5H8.9098V25.5188Z" fill="white"/>
</mask>
<g mask="url(#mask1_223_3640)">
<path id="Fill 4" fill-rule="evenodd" clip-rule="evenodd" d="M23.3872 52.2377C21.1804 52.2377 19.3422 50.4448 19.3422 48.2854C19.3422 46.1286 21.1804 44.2893 23.3872 44.2893C25.5465 44.2893 27.3832 46.1286 27.3832 48.2854C27.3832 50.4448 25.5465 52.2377 23.3872 52.2377V52.2377ZM27.3832 36.5419V42.3654C26.192 41.5374 24.812 41.1241 23.2966 41.1241C19.2984 41.1241 16.0366 44.2894 16.0366 48.2854C16.0366 52.2377 19.2984 55.5 23.2966 55.5C24.812 55.5 26.192 55.0426 27.3832 54.2591V55.1803H30.8298V36.5419H27.3867L20.9977 25.5188L8.9098 32.4551L11.256 36.5419H27.3832Z" fill="#333333"/>
</g>
</g>
<mask id="mask2_223_3640" style="mask-type:luminance" maskUnits="userSpaceOnUse" x="0" y="0" width="82" height="56">
<path id="Clip 8" fill-rule="evenodd" clip-rule="evenodd" d="M0.0177002 55.5H81.7009V0.5H0.0177002V55.5Z" fill="white"/>
</mask>
<g mask="url(#mask2_223_3640)">
<path id="Fill 7" fill-rule="evenodd" clip-rule="evenodd" d="M32.2774 55.0863H35.7929V41.2329H32.2774V55.0863Z" fill="#333333"/>
<path id="Fill 9" fill-rule="evenodd" clip-rule="evenodd" d="M7.28989 44.3743C9.48753 44.3743 11.317 46.1997 11.317 48.3402C11.317 50.4832 9.48753 52.2624 7.28989 52.2624C5.13936 52.2624 3.31119 50.4832 3.31119 48.3402C3.31119 46.1997 5.13936 44.3743 7.28989 44.3743M7.19625 55.5001C8.75353 55.5001 10.1751 55.0462 11.317 54.2685V55.1828H14.7V41.37H11.317V42.4651C10.1243 41.6434 8.71002 41.2332 7.19625 41.2332C3.26759 41.2332 0.0177002 44.3744 0.0177002 48.3403C0.0177002 52.2625 3.26759 55.5001 7.19625 55.5001" fill="#333333"/>
<path id="Fill 10" fill-rule="evenodd" clip-rule="evenodd" d="M69.7069 36.4774L48.8717 0.5L36.8268 7.44776L53.5876 36.4774H69.7069Z" fill="#333333"/>
<path id="Fill 11" fill-rule="evenodd" clip-rule="evenodd" d="M32.4692 39.9925H35.9097V36.5489H48.614L35.0863 13.1128L22.9717 20.0513L32.4692 36.5489V39.9925Z" fill="#333333"/>
<path id="Fill 12" fill-rule="evenodd" clip-rule="evenodd" d="M60.482 52.2624C58.3317 52.2624 56.5063 50.4832 56.5063 48.3401C56.5063 46.1997 58.3317 44.3743 60.482 44.3743C62.6321 44.3743 64.4127 46.1997 64.4127 48.3401C64.4127 50.4832 62.6321 52.2624 60.482 52.2624V52.2624ZM67.8457 55.1828V41.37H64.4127V42.465C63.2649 41.6434 61.8546 41.2332 60.3468 41.2332C56.4161 41.2332 53.1634 44.3744 53.1634 48.3402C53.1634 52.2625 56.4161 55.5001 60.3468 55.5001C61.8981 55.5001 63.2649 55.0462 64.4127 54.2685V55.1828H67.8457Z" fill="#333333"/>
<path id="Fill 13" fill-rule="evenodd" clip-rule="evenodd" d="M44.5176 52.2272C42.4085 52.2272 40.5796 50.4285 40.5796 48.2621C40.5796 46.0983 42.4085 44.2532 44.5176 44.2532C46.7111 44.2532 48.5363 46.0983 48.5363 48.2621C48.5363 50.4285 46.7111 52.2272 44.5176 52.2272M44.4216 41.0775C40.4894 41.0775 37.2404 44.253 37.2404 48.262C37.2404 52.227 40.4894 55.4999 44.4216 55.4999C45.9787 55.4999 47.3947 55.041 48.5363 54.2549V55.1791H51.9227V36.4773H48.5363V42.3228C47.3511 41.4922 45.9787 41.0775 44.4216 41.0775" fill="#333333"/>
</g>
</g>
<defs>
<clipPath id="clip0_223_3640">
<rect width="81.6832" height="55" fill="white" transform="translate(0.0177002 0.5)"/>
</clipPath>
</defs>
</svg>
