<svg width="192" height="66" viewBox="0 0 192 66" fill="none" xmlns="http://www.w3.org/2000/svg">
<path fill-rule="evenodd" clip-rule="evenodd" d="M17.782 33.4301C17.9493 33.8372 18.3505 34.8208 18.4603 35.0908C18.5493 35.3308 18.5226 35.6005 18.3885 35.8167C18.114 36.2807 13.5761 44.0686 13.5761 44.0686C13.5761 44.0686 22.5316 38.6524 23.951 37.7895C24.4973 37.462 24.8866 36.9121 25.0247 36.2731C25.1627 35.6341 25.0369 34.9643 24.6777 34.426C24.1875 33.6716 16.4188 21.6805 16.0738 21.1459C15.9413 20.9177 15.939 20.6327 16.0676 20.4021C16.1962 20.1716 16.4354 20.0318 16.692 20.0374H18.4839C19.1244 20.0154 19.7513 20.2325 20.2509 20.6493C25.0475 24.6097 35.4472 33.2008 38.3749 35.6268C39.2783 36.3747 39.4743 37.7188 38.8245 38.7107C37.8956 40.1037 36.5288 41.1178 34.9584 41.5789C32.6267 42.4663 10.1754 50.9787 6.46614 52.4128C5.37239 52.8344 4.21375 53.0455 3.04707 53.0356H0.660512C0.409741 53.0398 0.180259 52.8898 0.0755168 52.6532C-0.0292253 52.4166 0.0105563 52.1382 0.176928 51.9433C1.14802 50.8471 16.2659 33.9796 16.8933 33.2809C17.0151 33.1406 17.1972 33.0741 17.3768 33.1043C17.5564 33.1345 17.709 33.2572 17.782 33.4301ZM107.499 37.2115C107.093 36.8135 106.546 36.6099 105.989 36.6498H93.3649L94.7399 33.9159H110.02C111.143 33.9434 112.208 33.3949 112.866 32.4492L113.461 31.2688C113.705 30.8766 113.655 30.3613 113.341 30.0273C112.926 29.6326 112.374 29.4294 111.812 29.4643H91.0306C89.9121 29.4325 88.8505 29.9763 88.1945 30.9174L80.3421 46.4945C80.0924 46.8914 80.1384 47.4144 80.4532 47.7577C80.8641 48.1504 81.4104 48.3539 81.968 48.3221H102.625C103.751 48.3537 104.818 47.8019 105.472 46.85L106.098 45.6425C106.317 45.2499 106.264 44.7543 105.967 44.4214C105.56 44.0369 105.02 43.841 104.472 43.8787H89.7158L91.13 41.0796H104.2C105.32 41.1038 106.381 40.5594 107.043 39.6211L107.649 38.4543C107.876 38.0519 107.815 37.5411 107.5 37.2088L107.499 37.2115ZM190.788 30.0545C190.985 30.4751 190.657 30.9879 189.898 31.4587L177.659 38.8952L182.555 46.4932C182.811 46.8525 182.779 47.3514 182.479 47.6722C182.032 48.1266 181.42 48.3641 180.796 48.3262L177.063 48.5365C175.87 48.6633 174.703 48.1216 173.998 47.1146L171.273 42.815L164.335 47.0345C163.106 47.8447 161.686 48.2913 160.23 48.3262H155.932C155.557 48.458 155.143 48.3563 154.864 48.0641C154.586 47.772 154.493 47.3407 154.625 46.9533C154.756 46.5659 155.089 46.2903 155.482 46.2435L168.408 38.3892L163.814 31.3C163.563 30.9466 163.589 30.458 163.877 30.1359C164.324 29.6682 164.942 29.4213 165.576 29.4575H169.444C170.64 29.3462 171.801 29.9111 172.483 30.9364L174.781 34.5047L181.447 30.452C182.769 29.7581 184.238 29.4163 185.719 29.4575H189.501C190.008 29.3511 190.525 29.5889 190.789 30.0504L190.788 30.0545ZM160.126 30.0301C160.438 30.3625 160.492 30.8728 160.256 31.2674L152.36 46.8432C151.689 47.8033 150.605 48.3566 149.463 48.3208H146.11C145.545 48.3552 144.992 48.1495 144.576 47.7509C144.267 47.4321 144.213 46.9327 144.446 46.5502L152.314 30.9364C152.973 29.9895 154.037 29.4372 155.162 29.4575H158.576C159.147 29.4207 159.708 29.6275 160.128 30.0301H160.126ZM148.735 30.0111C149.059 30.3563 149.113 30.8867 148.866 31.2946L141.033 46.8229C140.384 47.789 139.309 48.3501 138.175 48.3153H134.93C134.37 48.356 133.82 48.1569 133.406 47.7645C133.094 47.415 133.046 46.8927 133.287 46.4878L138.13 36.7895L127.86 47.0128C126.944 47.8056 125.802 48.2633 124.61 48.3153H123.316C122.291 48.4732 121.323 47.7847 121.094 46.736L120.989 36.7895L115.96 46.7645C115.313 47.7374 114.233 48.3002 113.095 48.257H109.85C109.296 48.3014 108.748 48.1048 108.339 47.7143C108.024 47.3685 107.973 46.8455 108.216 46.4416L116.058 30.9567C116.707 30.0006 117.768 29.4377 118.894 29.4521H124.811C125.384 29.4346 125.946 29.6145 126.409 29.9636C126.77 30.2245 126.982 30.655 126.974 31.1114L126.999 40.4406L136.671 30.8251C137.57 29.9818 138.727 29.4954 139.938 29.4521H147.26C147.803 29.4197 148.335 29.6197 148.733 30.0056L148.735 30.0111ZM81.8242 32.1941C83.2371 33.7693 83.1704 36.0229 81.6204 39.0486C78.3725 45.4539 72.197 48.3153 61.5673 48.3153H50.1861C49.6169 48.35 49.0584 48.1445 48.6373 47.7455C48.3389 47.4203 48.289 46.9272 48.5157 46.5447L54.0979 35.4938H62.1698L58.0816 43.5056H63.3252C70.0457 43.5056 71.9996 42.1379 73.734 38.7189C74.696 36.8343 74.845 35.6946 74.2411 35.0189C73.5733 34.2632 71.8049 33.9037 68.693 33.9037H66.6188C66.6188 33.9037 56.0989 33.9037 55.7577 33.9037C55.0373 33.9205 54.3165 33.8892 53.5999 33.81C53.0967 33.7042 52.8994 33.4885 52.9987 33.1805C53.4078 31.9146 54.1776 30.8074 55.2062 30.0056C55.9495 29.5588 56.8105 29.3687 57.6646 29.4629C58.2084 29.4494 58.739 29.4494 59.284 29.4494H70.6848C76.5336 29.4494 80.1944 30.3503 81.8256 32.1914" fill="#333333"/>
</svg>
