<svg width="88" height="66" viewBox="0 0 88 66" fill="none" xmlns="http://www.w3.org/2000/svg">
<g clip-path="url(#clip0_223_3667)">
<path fill-rule="evenodd" clip-rule="evenodd" d="M62.1688 42.9893C63.8695 42.9976 65.412 43.7333 66.31 45.6187C66.4677 45.9496 66.6034 46.3233 66.7192 46.6992C67.0732 47.8511 67.2356 49.0216 67.2356 49.0216L67.2556 53.8767C67.2556 53.8767 67.1741 56.2126 66.482 57.787C66.3852 58.0069 66.2781 58.2139 66.1609 58.4066C65.2157 59.978 63.6365 60.7154 61.9077 60.6475C60.1455 60.5782 59.3814 59.4518 59.3814 59.4518C59.3814 59.4518 58.9256 59.3587 58.7741 59.4187C58.6226 59.4785 58.563 59.8727 58.563 59.8727L58.5735 62.3091L58.5783 63.4532C58.5783 63.4532 58.7016 63.8786 59.098 64.3357C59.4948 64.7925 59.8902 64.9464 59.8902 64.9464L59.8926 65.4926L53.0284 65.4592L53.026 64.9131C53.026 64.9131 53.5409 64.5817 53.8739 64.3102C54.207 64.0389 54.4776 63.4332 54.4776 63.4332L54.4733 62.3094L54.4571 58.4068L54.4085 46.699L54.4013 45.0148C54.4013 45.0148 54.1264 44.6797 53.6386 44.2223C53.1508 43.7648 52.7254 43.7323 52.7254 43.7323L52.7235 43.1862L58.6464 43.2151C58.6464 43.2151 58.6173 43.5486 58.6493 43.9736C58.6816 44.3984 59.0151 44.3393 59.0151 44.3393C59.0151 44.3393 60.4676 42.981 62.1688 42.9893ZM48.2173 42.9215C49.9186 42.9298 51.5616 43.6661 52.359 45.5511C52.5091 45.9053 52.643 46.3033 52.7597 46.6994C53.0946 47.8361 53.2847 48.9539 53.2847 48.9539L53.3047 53.809C53.3047 53.809 53.2232 56.145 52.531 57.7194C52.4234 57.9643 52.3028 58.1932 52.1699 58.4066C51.2205 59.9308 49.6613 60.6468 47.9568 60.5799C46.1946 60.5105 45.431 59.3842 45.431 59.3842C45.431 59.3842 44.9746 59.291 44.8231 59.351C44.6712 59.4108 44.6125 59.8051 44.6125 59.8051L44.6226 62.3091L44.6273 63.3855C44.6273 63.3855 44.7502 63.811 45.1475 64.2678C45.5439 64.7249 45.9393 64.8785 45.9393 64.8785L45.9416 65.425L39.0771 65.3916L39.0749 64.8454C39.0749 64.8454 39.5899 64.5141 39.9229 64.2425C40.2558 63.9712 40.5267 63.3655 40.5267 63.3655L40.5224 62.3091L40.5062 58.4066L40.4576 46.699L40.4504 44.9472C40.4504 44.9472 40.1755 44.612 39.6878 44.1546C39.1999 43.6973 38.7746 43.6646 38.7746 43.6646L38.7722 43.1187L44.695 43.1473C44.695 43.1473 44.6664 43.4808 44.6983 43.9059C44.7302 44.3308 45.0642 44.2718 45.0642 44.2718C45.0642 44.2718 46.5167 42.9134 48.2173 42.9215ZM75.5747 42.6015C79.8574 42.6528 79.4173 46.2917 79.4173 46.2917L79.4186 46.699L79.4658 58.0041C79.4658 58.0041 79.4806 58.1846 79.574 58.4066H79.5704C79.6716 58.6439 79.856 58.9273 80.199 59.1C80.7968 59.4008 81.2022 59.3477 81.2022 59.3477L81.2051 59.9849L75.9506 59.9594L75.6443 59.3208L74.8544 59.3167L74.8451 59.335C74.8082 59.3958 74.6349 59.6066 73.885 59.9494C73.097 60.3098 72.1047 60.9398 70.0368 60.2621C69.1378 59.9677 68.5571 59.21 68.1874 58.4066L68.1898 58.4054C67.7367 57.4236 67.5995 56.3715 67.5814 56.0047C67.5481 55.337 67.9078 54.0946 68.9048 52.916C69.9024 51.7375 71.7817 50.8364 73.8426 49.754C75.9034 48.6717 75.7481 47.8213 75.7471 47.5179C75.7462 47.3645 75.7448 47.0096 75.508 46.699L75.4222 46.5993C75.1695 46.34 74.7195 46.1342 73.9188 46.1435C73.3476 46.1504 72.6969 46.3834 72.0723 46.699L72.0675 46.7002C70.8756 47.3069 69.7759 48.2211 69.5196 48.4401L69.4637 48.4885L69.4565 46.6992L69.4475 44.5745C69.4475 44.5745 71.2006 42.5493 75.5747 42.6015ZM34.1526 42.3982C38.4354 42.4495 37.9949 46.0882 37.9949 46.0882L37.9974 46.699L38.0434 57.8009C38.0434 57.8009 38.0687 58.101 38.254 58.4066L38.3468 58.5428C38.451 58.6765 38.5905 58.803 38.7769 58.8966C39.3746 59.1976 39.7802 59.1443 39.7802 59.1443L39.7828 59.7817L34.5283 59.7562L34.2219 59.1174L33.4323 59.1136L33.4185 59.1408C33.3676 59.2296 33.1525 59.5244 32.4027 59.8672C31.6144 60.2273 30.7854 60.8343 28.7284 60.1225C27.7854 59.796 27.1899 59.1279 26.8128 58.4066H26.8158C26.2657 57.3581 26.1788 56.1966 26.1592 55.8012C26.1262 55.1336 26.4854 53.8912 27.4828 52.7129C28.4804 51.5341 30.3597 50.6329 32.4205 49.5506C34.4814 48.4683 34.3261 47.6181 34.3249 47.3147C34.3244 47.1944 34.3234 46.95 34.2087 46.6997L34.159 46.6047C33.9562 46.2572 33.5043 45.9285 32.4966 45.9403C31.809 45.9484 31.0059 46.2843 30.2724 46.699H30.2714C29.0622 47.3847 28.0415 48.2856 28.0415 48.2856L28.0349 46.699L28.0252 44.3713C28.0252 44.3713 28.0341 44.3609 28.0523 44.3418L28.135 44.2592C28.5796 43.835 30.4034 42.3535 34.1526 42.3982ZM6.46615 39.7063L15.507 39.7502L15.4452 40.3335C15.4452 40.3335 14.5459 40.6792 14.0007 41.1436C13.5217 41.5515 13.3607 42.0451 13.3607 42.0451L13.3802 46.699L13.3806 46.8309L14.2496 46.8352L14.3749 46.699L18.6375 42.0707C18.6375 42.0707 18.8609 41.6048 18.8605 41.4882C18.8605 41.4882 18.6326 40.9033 18.4066 40.6981C18.1807 40.4926 17.8583 40.3453 17.8583 40.3453L17.8236 39.7615L27.669 39.8092L27.6714 40.3929C27.6714 40.3929 27.2521 40.1864 26.0657 41.1145C25.5815 41.4932 24.2979 42.8249 22.9479 44.2693L22.3674 44.8928C21.7871 45.5183 21.2138 46.1424 20.7052 46.699C19.6605 47.8404 18.8904 48.696 18.8904 48.696L18.8935 49.4546L24.4623 57.8859C24.4623 57.8859 24.6461 58.1129 24.9533 58.4047C25.0749 58.5195 25.2133 58.6427 25.3667 58.7656C25.9155 59.2062 27.0425 59.4449 27.0425 59.4449L27.1738 60.0585L18.905 60.0182L18.9025 59.4053C18.9025 59.4053 19.1905 59.0276 19.3179 58.7363C19.3576 58.6457 19.3692 58.5264 19.3661 58.4066L19.3689 58.4054C19.3596 58.1377 19.2822 57.8607 19.2822 57.8607L15.4311 52.4727L14.5632 52.6145C14.5632 52.6145 14.1774 52.7293 13.8257 53.2528C13.5289 53.6947 13.4113 54.1847 13.4113 54.1847L13.4264 57.8323C13.4264 57.8323 13.4272 58.0224 13.7334 58.4052C13.8075 58.4964 13.8978 58.5981 14.0092 58.7105C14.5908 59.297 15.2346 59.3875 15.2346 59.3875L15.2372 60.0004L6.93635 59.9603L6.9337 59.3472C6.9337 59.3472 7.4793 59.0293 7.92818 58.681C8.03667 58.5969 8.12636 58.5026 8.20007 58.4066C8.43135 58.1084 8.50388 57.8085 8.50388 57.8085L8.45781 46.699L8.43839 42.0211C8.43839 42.0211 8.21077 41.4658 7.69415 41.0255C7.17762 40.5853 6.46851 40.29 6.46851 40.29L6.46615 39.7063ZM34.194 52.3813C34.194 52.3813 32.8592 52.7691 31.8901 53.4622C30.7437 54.2823 30.4395 55.2153 30.4425 55.9435C30.4455 56.6716 30.8747 57.6449 32.1203 57.7418C33.3662 57.8387 34.2092 56.083 34.2092 56.083L34.194 52.3813ZM75.6152 52.3418C75.6152 52.3418 74.2804 52.7297 73.3114 53.4229C72.1647 54.243 71.8608 55.1758 71.8637 55.9039C71.867 56.6323 72.2958 57.6053 73.5415 57.7023C74.7872 57.7995 75.6305 56.0438 75.6305 56.0438L75.6152 52.3418ZM60.9606 46.1997C60.3394 46.1966 59.8812 46.4058 59.5443 46.6994C58.7603 47.3828 58.6316 48.525 58.6316 48.525L58.6578 54.9578C58.6578 54.9578 58.9422 57.3614 61.0678 57.4271C63.4069 57.4991 63.4855 54.4955 63.4855 54.4955L63.4626 48.9125C63.4626 48.9125 63.232 47.4843 62.3126 46.699C61.9673 46.406 61.5247 46.2023 60.9606 46.1997ZM46.8897 46.1349C46.2251 46.1318 45.7473 46.3715 45.4043 46.6978C44.6821 47.3859 44.5607 48.4599 44.5607 48.4599L44.5873 54.8926C44.5873 54.8926 44.8712 57.2969 46.9968 57.3621C49.3359 57.4343 49.415 54.4307 49.415 54.4307L49.3917 48.8477C49.3917 48.8477 49.1725 47.4919 48.3112 46.699C47.9563 46.37 47.4923 46.138 46.8897 46.1349ZM34.3653 0.533216L34.5819 0.540099C35.3342 0.609094 35.5647 1.00234 35.5647 1.00234L36.0878 1.00483C36.3495 1.00614 36.4484 1.20254 36.6452 1.36666C36.8421 1.53101 36.8742 1.40049 37.1034 1.49955C37.3328 1.59867 37.8587 2.28714 38.2552 3.26895C38.5194 3.92352 38.5518 4.70761 38.5547 5.41901L38.5554 6.09869L38.5625 6.40631C38.5988 7.28835 38.6362 8.4643 38.6049 8.75813C38.5733 9.05192 38.1137 8.55982 38.2133 8.91973C38.3128 9.27928 38.7061 9.50987 38.7398 9.77141C38.7736 10.0327 38.5768 9.8686 38.6105 10.13C38.6443 10.3914 39.0692 10.3282 39.1351 10.4593C39.2011 10.5903 38.8745 10.7192 38.9082 10.9481C38.9418 11.1769 39.2361 11.1456 39.2361 11.1456C39.2361 11.1456 39.3018 11.2111 39.2699 11.4072C39.238 11.6028 39.0747 11.6675 39.01 11.8303C38.9453 11.9935 39.0111 12.0918 39.0111 12.0918C39.0111 12.0918 39.8916 12.636 40.5538 13.5364C41.2771 14.5198 41.8705 15.6986 42.5619 16.8451C43.2533 17.9918 44.1775 20.0865 44.1775 20.0865C44.1775 20.0865 44.9855 17.8695 45.9283 16.5348L47.651 14.0935C47.651 14.0935 47.4861 13.766 47.2894 13.569C47.0921 13.372 47.0593 13.2414 47.1893 13.144C47.3198 13.0466 47.7772 12.8855 47.8415 12.6243C47.9053 12.3637 47.4137 12.0017 47.4137 12.0017C47.4123 11.753 47.5885 11.4121 48.0644 11.319C48.3912 11.2553 48.1921 10.5685 48.1921 10.5685C48.1921 10.5685 47.5628 10.0914 47.4347 9.1277C47.2993 8.11442 47.2365 8.73465 46.7087 7.52359C46.55 7.16044 46.7049 6.6743 46.8015 6.34799C46.8982 6.02191 46.9606 5.30373 47.0245 4.94468C47.0888 4.58585 47.4461 4.03215 47.9334 3.3813C48.4212 2.73042 48.9439 2.60229 49.434 2.53928C49.9242 2.47615 50.2844 2.6087 50.4797 2.41377C50.675 2.21854 50.6107 2.41433 51.231 2.22142C51.8517 2.02849 51.6878 1.99489 52.0804 1.99692C52.4729 1.99882 52.8988 2.19699 53.0946 2.19781C53.2908 2.19889 53.2899 2.00275 53.5843 1.97154C53.8782 1.94024 54.076 2.23511 54.4689 2.49845C54.8629 2.76163 55.0263 2.82774 55.256 3.05748C55.486 3.28729 55.4898 4.16913 55.4898 4.16913C55.4898 4.16913 55.6213 4.39848 55.8843 4.69362C56.1473 4.98885 56.3111 5.18572 56.4431 5.44762C56.5751 5.70952 56.6417 6.03655 56.6417 6.03655C56.6417 6.03655 57.2644 6.33345 57.5916 6.46564C57.9194 6.59784 57.8541 6.6631 57.8222 6.82614C57.7899 6.98944 57.5964 7.54369 57.7284 7.9035C57.8608 8.26364 57.7303 8.36093 57.7303 8.36093C57.7305 8.38348 57.7564 8.46262 57.9613 8.81933C58.2248 9.27774 58.3233 9.50712 58.3572 9.73578C58.391 9.96468 58.1957 10.1923 58.0333 10.4202C57.8708 10.6481 58.0028 10.9425 58.0028 10.9425C58.0028 10.9425 58.0191 10.9679 58.0496 11.0152L58.1812 11.2198C58.8028 12.1864 60.8635 15.3962 61.3927 16.2831C62.0182 17.3315 62.6466 19.0984 62.6466 19.0984C62.6267 19.1201 62.6362 19.2017 63.2368 19.5584C63.9581 19.9867 64.9718 19.9915 64.9718 19.9915L65.2653 19.8295C65.5592 19.6677 66.3424 19.3123 66.9631 19.2499C67.5838 19.1875 67.9764 19.1569 68.2046 19.0272C68.4328 18.8976 68.3661 18.5055 68.6276 18.4739C68.8886 18.4427 69.5446 18.9031 69.7423 19.2961C69.94 19.6889 69.8104 19.9497 69.7795 20.3742C69.7609 20.632 69.658 21.0098 69.5589 21.3324L69.5584 21.3327L69.5113 21.4841C69.4645 21.6297 69.4218 21.7557 69.3937 21.8422C69.2964 22.1356 69.4284 22.4303 69.4284 22.4303C69.4284 22.4303 70.2173 23.4465 71.1377 24.5942C71.9611 25.6212 73.2328 27.4609 73.4913 27.8368L73.5382 27.905C74.4192 29.1316 75.2386 30.1957 75.9682 31.0878C77.0915 32.4594 78.0019 33.422 78.5983 33.9395C79.5825 34.7934 80.1385 34.7309 81.0889 35.3234C82.0397 35.9159 82.893 36.6386 83.941 37.1662C84.9895 37.6942 85.3825 37.8267 85.7422 37.8285C86.1019 37.8302 86.2986 37.8966 86.2996 38.1577C86.3005 38.4191 86.0728 38.6466 85.5173 38.7747C85.2234 38.8423 84.8004 38.8728 84.3125 38.894H84.3119C83.8791 38.9155 83.3946 38.9295 82.9025 38.9577C82.4304 38.985 81.9047 38.952 81.3916 38.8946C80.7645 38.8256 80.1623 38.7219 79.6969 38.6483C78.8461 38.5135 77.2449 38.669 76.264 38.6642C75.2827 38.6595 75.0188 38.0052 74.984 37.4822C74.9492 36.9593 75.1746 36.1766 75.0416 35.686C74.9092 35.1956 74.1865 34.3753 72.5139 33.1914C71.4526 32.44 70.5498 31.7947 69.6461 31.0889L69.1243 30.6724C68.7748 30.3895 68.4209 30.0928 68.0531 29.7726C67.086 28.9309 66.0465 26.856 66.0465 26.856C66.0465 26.856 65.0385 28.2555 64.3897 29.4284C64.0743 29.9982 63.797 30.4989 63.4426 31.0889C63.0667 31.711 62.6054 32.4309 61.9215 33.4342C60.5891 35.3872 59.1237 36.8502 58.0809 37.6942C57.2782 38.3439 56.4936 38.7036 55.9367 38.894C55.7688 38.9504 55.6232 38.9915 55.5037 39.021C54.9842 39.1483 50.2656 39.1584 49.0191 38.895H49.0134L48.9963 38.8914C47.7858 38.6241 47.2198 36.2697 47.0521 35.2563L46.6834 33.0334C46.6834 33.0334 46.2473 32.0755 45.8285 31.0896L45.8102 31.0468L45.7921 31.0039L44.9003 28.8766C44.9003 28.8766 44.5601 30.0397 44.1541 31.0889L44.0114 31.4441L43.8665 31.7785C43.3479 32.9193 41.8855 35.0354 41.3322 35.6859C40.7792 36.3365 39.2179 38.2886 38.696 38.6127C38.4779 38.7481 38.1568 38.8375 37.7327 38.894C37.1317 38.9694 36.3457 38.9795 35.3625 38.9559C34.6499 38.9388 34.0136 38.961 33.3763 38.894L33.065 38.8521C32.545 38.7702 32.0159 38.6148 31.4363 38.3163C30.0273 37.5907 27.6229 33.3329 26.8652 31.9574C26.7337 31.7186 26.5694 31.4206 26.3858 31.0889L26.3882 31.0873C25.5116 29.5002 24.1996 27.1105 23.8998 26.4883C23.5372 25.7352 23.3411 25.7996 23.3411 25.7996C23.3411 25.7996 23.1789 26.1256 22.7243 26.8418C22.1139 27.8034 22.4646 27.2978 21.586 28.3061C20.7921 29.2173 19.9704 29.8883 18.6419 31.0889L18.4244 31.2851L18.1988 31.4909C16.6027 32.9529 15.5933 33.9278 15.3013 34.4817C15.0093 35.0354 15.3084 36.1803 15.4093 36.8992C15.5104 37.6184 15.3479 37.8463 14.957 38.2036C14.5661 38.5609 12.7668 38.3237 12.0474 38.2876C11.328 38.2514 10.4119 38.1163 9.00671 38.3381C7.60183 38.5599 6.9816 38.7855 6.0007 38.7809C5.01974 38.7761 4.92098 38.6123 4.29895 38.4132C3.67691 38.2143 3.48099 38.2785 3.15396 38.2444C2.82693 38.2103 2.72712 37.8177 2.66117 37.6542C2.59506 37.4905 2.88777 37.1327 2.88777 37.1327L2.81261 37.1141C2.72047 37.0918 2.56045 37.0546 2.4296 37.0324C2.23326 36.9988 2.00351 36.769 1.90452 36.54C1.80543 36.3108 1.90262 36.0826 1.90262 36.0826C1.90262 36.0826 2.4575 35.8892 3.17613 35.6969C3.8945 35.5043 4.41673 35.2455 5.65641 34.5983C6.8962 33.951 8.85428 33.046 10.777 31.5529C10.9817 31.3939 11.1731 31.2397 11.3526 31.0889L11.7449 30.7514C12.9865 29.6468 13.6183 28.7345 14.3575 27.6506C15.0815 26.5886 17.4498 22.8264 18.3877 21.3324L18.4851 21.1774C18.6676 20.8866 18.7753 20.7147 18.7753 20.7147L19.0352 20.3238C19.0352 20.3238 18.6091 20.028 18.4446 19.7986C18.2801 19.5691 18.4083 18.9165 18.4083 18.9165C18.4083 18.9165 18.1435 18.164 18.1422 17.8373C18.1408 17.5106 18.8566 16.6648 19.1504 16.5355C19.4441 16.4064 19.5107 16.7005 19.7068 16.7016C19.9031 16.7024 20.9471 16.1197 21.2408 16.0233C21.5346 15.9265 21.9937 16.2555 22.1903 16.3543C22.3869 16.4533 22.7795 16.4879 23.237 16.4574C23.6945 16.4271 26.3706 15.166 26.3706 15.166C26.3706 15.166 27.7291 11.645 27.9229 11.0581C28.1165 10.4711 28.21 9.36098 28.21 9.36098C28.21 9.36098 28.0781 9.03385 28.0774 8.87045C28.0766 8.70714 28.0094 8.28211 28.0094 8.28211C28.0094 8.28211 28.0093 8.24949 27.7802 8.18289C27.5511 8.11664 27.3214 7.91955 27.3204 7.72353C27.3197 7.52752 28.5567 6.22709 28.5567 6.22709C28.5567 6.22709 28.4883 5.50787 28.5198 5.2143C28.5514 4.92038 28.7785 4.49698 28.7785 4.49698C28.7785 4.49698 28.6463 4.16972 28.416 3.84184C28.1858 3.51409 28.4139 3.352 28.4782 3.05817C28.5424 2.76451 29.4549 2.05039 29.8784 1.69324C30.3021 1.33592 30.3995 1.17314 30.7909 0.946506C31.1823 0.719612 32.0984 0.88753 32.0984 0.88753C32.0984 0.88753 32.1961 0.757236 32.6209 0.726618C33.0458 0.696034 33.3736 0.893621 33.3736 0.893621C33.3736 0.893621 33.8296 0.471038 34.5819 0.540099L34.3653 0.533216ZM55.5997 20.8781L55.559 20.8932C55.4889 20.963 55.5165 21.1209 55.598 21.3324L55.5975 21.3329C55.8571 22.0083 56.6646 23.2321 56.6179 23.9031C56.556 24.7849 54.2379 25.5574 54.2379 25.5574C54.2379 25.5574 54.2093 26.5045 54.1455 26.8962C54.0816 27.2878 53.8525 27.2541 53.8549 27.8095C53.8573 28.3647 54.4146 28.7594 54.7091 28.8262C55.0039 28.8929 57.3144 26.3562 58.3567 25.3162C59.3985 24.276 60.8301 22.6499 60.8301 22.6499C60.8301 22.6499 58.6697 22.0515 57.8513 21.7208C57.5783 21.6108 57.2472 21.4684 56.9214 21.3324L56.7271 21.2514C56.1496 21.0129 55.6335 20.8188 55.559 20.8932L55.5997 20.8781ZM33.3186 19.2173C33.3186 19.2173 32.6987 19.5083 31.5572 20.156C30.5509 20.727 29.5697 21.2218 29.3511 21.3324L29.3106 21.3609C29.3578 21.4356 29.999 22.4489 30.8849 23.6479C31.8056 24.8935 32.4314 26.0071 33.2879 27.5138C34.1441 29.0204 34.1092 28.4649 34.3379 28.4333C34.5666 28.4019 34.5265 26.6052 34.4905 25.7884C34.4544 24.9717 34.6792 23.9928 34.6792 23.9928C34.6792 23.9928 34.1621 22.5439 33.8911 21.3324L33.8313 21.0475C33.7951 20.862 33.7668 20.6859 33.7493 20.5261C33.6314 19.4498 33.3944 19.256 33.3333 19.2235L33.3186 19.2173ZM55.9486 12.3372C55.7185 12.0421 55.4908 12.2698 55.4908 12.2698C55.4908 12.2698 55.0359 12.9533 54.8091 13.4423C54.5819 13.9311 54.3556 14.5179 54.3556 14.5179L54.4037 14.5386C54.5923 14.6224 55.3104 14.9659 56.1258 15.6697C57.0776 16.4908 58.3867 16.8241 58.3867 16.8241C58.3867 16.8241 58.3759 16.7959 58.3561 16.7451L58.2716 16.53C58.0563 15.9854 57.5856 14.8195 57.2644 14.2055C56.8356 13.3869 56.1787 12.6322 55.9486 12.3372ZM30.4104 11.6908L30.1538 12.8978L30.1242 13.6492C30.1242 13.6492 31.8536 12.841 31.8201 12.6121L31.6212 11.9579L31.0976 11.8574C30.7376 11.7902 30.4104 11.6908 30.4104 11.6908Z" fill="#333333"/>
</g>
<defs>
<clipPath id="clip0_223_3667">
<rect width="87.2368" height="65" fill="white" transform="translate(0.745483 0.5)"/>
</clipPath>
</defs>
</svg>
