<svg width="103" height="50" viewBox="0 0 103 50" fill="none" xmlns="http://www.w3.org/2000/svg">
<path fill-rule="evenodd" clip-rule="evenodd" d="M25.1706 25.5532C25.5789 25.5573 25.5789 25.6025 25.5789 26.0991V44.848C25.5789 46.6392 27.66 46.6878 27.66 44.848L27.6752 26.0991C27.6752 25.5528 27.6752 25.5528 28.27 25.5528H33.648C34.1444 25.7303 34.2567 25.5528 34.2567 26.0991V46.1152C34.3204 48.8021 33.648 49.3484 31.6155 49.3484H21.2075C19.4148 49.3484 18.7576 48.8673 18.7576 45.9391L18.758 25.9736C18.7622 25.5528 18.8124 25.5528 19.4148 25.5528L25.1706 25.5532ZM57.6975 25.5534C59.5387 25.5534 60.1959 26.0996 60.1959 28.1308L60.1955 48.9861C60.191 49.3475 60.1418 49.3475 59.6011 49.3475H54.2703C53.6145 49.3475 53.6145 49.3475 53.6145 48.8664V29.4618C53.6145 27.7661 51.5334 27.859 51.5334 29.4618L51.533 48.9861C51.5284 49.3475 51.478 49.3475 50.9234 49.3475H45.7367C44.952 49.3475 44.952 49.3475 44.952 48.8664V29.4618C44.952 27.5887 42.8723 27.7661 42.8723 29.4618V48.8664C42.8723 49.3475 42.8723 49.3475 42.15 49.3475H36.9466C36.2909 49.3475 36.2909 49.3475 36.2909 48.8664V28.2597C36.2909 26.0996 36.9466 25.5534 39.158 25.5534H57.6975ZM13.2988 25.553C15.8914 25.553 16.532 26.0992 16.532 28.6115V39.9179C16.532 42.8627 15.8914 43.4714 13.2988 43.5823H8.41571C7.80706 43.5823 7.80706 43.6807 7.80706 44.3046L7.80653 48.9974C7.80175 49.3471 7.75396 49.3471 7.27605 49.3471H1.83288C1.35455 49.3471 1.20898 48.9797 1.19373 48.8521V48.8341C1.20898 48.8203 1.20898 48.8022 1.22561 48.8203L1.22599 26.0328C1.23054 25.553 1.28971 25.553 2.05887 25.553H13.2988ZM75.6922 25.553C77.4225 25.553 77.966 26.0992 77.966 28.1317L77.9654 48.9974C77.9607 49.3471 77.9131 49.3471 77.4377 49.3471L71.8797 49.3467C71.3859 49.3431 71.3859 49.3035 71.3859 48.8674V44.3046C71.3859 43.5046 70.8577 43.1178 70.3281 43.1358C69.8345 43.1525 69.3534 43.5171 69.2882 44.2408L69.2877 48.9867C69.2828 49.3471 69.2287 49.3471 68.6338 49.3471L63.2635 49.3468C62.7082 49.3438 62.7082 49.3071 62.7082 48.8674V28.1484C62.7082 26.0992 63.4291 25.553 65.1746 25.553H75.6922ZM57.3935 0.241211C57.7443 0.512954 57.8399 0.420061 58.3377 1.5209C58.3848 1.63597 58.5304 1.79403 58.6898 1.89246C61.8759 2.27512 64.5171 3.57145 68.3117 6.56894C68.3117 6.56894 70.4775 8.25602 72.8644 10.1038L73.6232 10.6908C76.289 12.7518 78.9749 14.8127 79.0553 14.8127C81.6341 16.4446 86.0998 17.2612 88.6148 15.2134C91.1132 12.5376 92.6494 10.0558 93.3066 7.36753C94.0414 5.49167 97.0694 2.12955 98.7511 1.41137C100.045 0.786083 101.119 0.546228 101.616 1.34759C102.109 2.14618 102.273 2.62728 101.198 4.38806C99.4693 5.52633 97.9484 5.92563 96.347 7.20809C94.4587 8.71238 93.1277 10.8101 92.3444 13.4817C91.8314 14.9888 90.6792 16.5416 88.5663 18.1263C88.2294 18.3191 87.9882 18.5922 88.1323 18.9582C89.3968 21.2306 90.054 23.5238 90.1039 26.5157C90.2304 26.9784 90.2474 27.4012 90.2411 27.8139L90.227 28.3413C90.1957 29.5698 90.2868 30.8227 92.8255 32.9058C93.1277 34.8884 94.0247 35.7397 94.1051 36.7782C93.1277 39.1171 94.3131 40.1555 93.4646 40.846C90.2481 40.1555 90.1177 37.5144 90.4228 34.3311C86.7556 32.2001 84.2572 28.1309 82.2899 23.0898C81.4885 21.0088 79.8719 20.1284 77.7576 19.6001C71.4021 19.5183 67.2719 17.2945 64.3895 13.8658C63.7989 13.4346 63.4439 12.9216 62.8686 13.644C60.965 15.2592 58.0964 14.4606 54.5111 12.9078C53.9191 12.7164 53.23 12.3476 53.1011 13.1629C52.2054 14.9417 50.4932 13.6259 50.3642 12.6832C50.202 10.2652 51.9323 9.91304 53.9329 9.73835C54.848 9.73835 55.8074 9.94493 56.7197 9.94493L56.8527 9.87725C56.9052 9.8486 56.9468 9.81516 57.0233 9.72032C57.0718 8.67772 57.2479 7.99005 55.1988 7.84724C54.0147 8.00668 53.5974 8.02332 52.5728 7.07915C52.3815 7.03201 52.2207 6.99735 52.0266 6.91832C51.917 6.80602 51.9018 6.74225 51.8214 6.58142C51.7257 6.46912 51.4678 6.34295 51.4678 5.84383C51.1795 5.63725 51.2446 5.23795 51.4041 4.78736C51.4678 4.78736 51.8852 4.16346 52.2373 3.77942C52.4134 3.57145 52.4453 3.22068 52.7018 2.99469C53.3742 2.43734 54.109 1.79403 54.109 1.79403C54.543 1.15488 54.7981 0.512953 55.1183 0.450563C55.3915 0.464427 55.6632 0.690418 55.9197 0.801333C56.032 0.866496 56.0639 0.866496 56.2552 0.866496C56.6726 0.738943 56.9776 0.561479 57.3935 0.241211ZM8.87878 28.1484C8.3353 28.1484 7.80706 28.5186 7.80706 29.2215V39.5477C7.80706 40.3019 8.3353 40.6707 8.87878 40.6707C9.39177 40.6707 9.92 40.3186 9.95189 39.6115V29.2686C9.95189 28.5186 9.42366 28.1484 8.87878 28.1484ZM70.3281 28.4215C69.8178 28.4215 69.2882 28.757 69.2882 29.4627V39.6115C69.2882 40.2368 69.8178 40.5571 70.3281 40.5571C70.8577 40.5723 71.3859 40.2548 71.3859 39.6115V29.4627C71.3859 28.7903 70.8577 28.4381 70.3281 28.4215Z" fill="#333333"/>
</svg>
